<mxfile host="app.diagrams.net" modified="2020-12-17T22:50:08.825Z" agent="5.0 (Windows NT 6.1; Win64; x64) AppleWebKit/537.36 (KHTML, like Gecko) Chrome/87.0.4280.101 Safari/537.36" etag="MDudivEcby4blK7jIew5" version="14.0.4" type="github">
  <diagram id="sq5ixLmchy_gWhD6QR-o" name="Page-1">
    <mxGraphModel dx="862" dy="524" grid="1" gridSize="10" guides="1" tooltips="1" connect="1" arrows="1" fold="1" page="1" pageScale="1" pageWidth="827" pageHeight="1169" math="0" shadow="0">
      <root>
        <mxCell id="0" />
        <mxCell id="1" parent="0" />
        <mxCell id="KSV4AMoXFUWsUYzfuKbH-1" value="" style="rounded=0;whiteSpace=wrap;html=1;" vertex="1" parent="1">
          <mxGeometry x="340" y="240" width="120" height="60" as="geometry" />
        </mxCell>
        <mxCell id="KSV4AMoXFUWsUYzfuKbH-2" value="" style="endArrow=classic;html=1;" edge="1" parent="1">
          <mxGeometry width="50" height="50" relative="1" as="geometry">
            <mxPoint x="400" y="240" as="sourcePoint" />
            <mxPoint x="400" y="170" as="targetPoint" />
            <Array as="points">
              <mxPoint x="400" y="200" />
            </Array>
          </mxGeometry>
        </mxCell>
        <mxCell id="KSV4AMoXFUWsUYzfuKbH-3" value="Funciones&amp;nbsp;" style="rounded=0;whiteSpace=wrap;html=1;" vertex="1" parent="1">
          <mxGeometry x="305" y="80" width="190" height="90" as="geometry" />
        </mxCell>
        <mxCell id="KSV4AMoXFUWsUYzfuKbH-4" value="" style="shape=partialRectangle;whiteSpace=wrap;html=1;top=0;bottom=0;fillColor=none;rotation=90;" vertex="1" parent="1">
          <mxGeometry x="540" y="240" width="20" height="60" as="geometry" />
        </mxCell>
        <mxCell id="KSV4AMoXFUWsUYzfuKbH-5" value="" style="line;strokeWidth=4;direction=south;html=1;perimeter=backbonePerimeter;points=[];outlineConnect=0;rotation=15;" vertex="1" parent="1">
          <mxGeometry x="545" y="240.00000000000003" width="10" height="70" as="geometry" />
        </mxCell>
        <mxCell id="KSV4AMoXFUWsUYzfuKbH-8" value="" style="rounded=1;whiteSpace=wrap;html=1;" vertex="1" parent="1">
          <mxGeometry x="600" y="170" width="190" height="50" as="geometry" />
        </mxCell>
        <mxCell id="KSV4AMoXFUWsUYzfuKbH-9" value="" style="rounded=1;whiteSpace=wrap;html=1;" vertex="1" parent="1">
          <mxGeometry x="600" y="240" width="190" height="50" as="geometry" />
        </mxCell>
        <mxCell id="KSV4AMoXFUWsUYzfuKbH-10" value="" style="rounded=1;whiteSpace=wrap;html=1;" vertex="1" parent="1">
          <mxGeometry x="600" y="310" width="190" height="50" as="geometry" />
        </mxCell>
        <mxCell id="KSV4AMoXFUWsUYzfuKbH-11" value="" style="rounded=1;whiteSpace=wrap;html=1;" vertex="1" parent="1">
          <mxGeometry x="40" y="170" width="190" height="50" as="geometry" />
        </mxCell>
        <mxCell id="KSV4AMoXFUWsUYzfuKbH-12" value="" style="rounded=1;whiteSpace=wrap;html=1;" vertex="1" parent="1">
          <mxGeometry x="40" y="240" width="190" height="50" as="geometry" />
        </mxCell>
        <mxCell id="KSV4AMoXFUWsUYzfuKbH-13" value="" style="rounded=1;whiteSpace=wrap;html=1;" vertex="1" parent="1">
          <mxGeometry x="40" y="310" width="190" height="50" as="geometry" />
        </mxCell>
        <mxCell id="KSV4AMoXFUWsUYzfuKbH-16" value="" style="shape=flexArrow;endArrow=classic;html=1;exitX=0;exitY=0.75;exitDx=0;exitDy=0;" edge="1" parent="1" source="KSV4AMoXFUWsUYzfuKbH-1">
          <mxGeometry width="50" height="50" relative="1" as="geometry">
            <mxPoint x="390" y="300" as="sourcePoint" />
            <mxPoint x="260" y="280" as="targetPoint" />
            <Array as="points">
              <mxPoint x="290" y="300" />
            </Array>
          </mxGeometry>
        </mxCell>
      </root>
    </mxGraphModel>
  </diagram>
</mxfile>
